<svg width="960" height="720" viewBox="0 0 960 720" fill="none" xmlns="http://www.w3.org/2000/svg">
  <defs>
    <linearGradient id="bg" x1="0" y1="0" x2="1" y2="1">
      <stop offset="0%" stop-color="#0f172a"/>
      <stop offset="100%" stop-color="#1e293b"/>
    </linearGradient>
    <linearGradient id="bot" x1="0" y1="0" x2="1" y2="1">
      <stop offset="0%" stop-color="#3b82f6"/>
      <stop offset="100%" stop-color="#14b8a6"/>
    </linearGradient>
    <radialGradient id="glow" cx="0" cy="0" r="1" gradientUnits="userSpaceOnUse" gradientTransform="translate(640 240) rotate(115) scale(280 280)">
      <stop offset="0%" stop-color="#67e8f9" stop-opacity="0.9"/>
      <stop offset="100%" stop-color="#0f172a" stop-opacity="0"/>
    </radialGradient>
  </defs>
  <rect width="960" height="720" fill="url(#bg)"/>
  <circle cx="640" cy="260" r="240" fill="url(#glow)"/>
  <ellipse cx="640" cy="340" rx="170" ry="150" fill="url(#bot)"/>
  <circle cx="565" cy="320" r="62" fill="#0f172a"/>
  <circle cx="565" cy="320" r="44" fill="#38bdf8"/>
  <circle cx="565" cy="320" r="22" fill="#0f172a"/>
  <rect x="705" y="370" width="92" height="120" rx="24" fill="#0f172a" opacity="0.55"/>
  <ellipse cx="300" cy="420" rx="90" ry="110" fill="#f5e3c2"/>
  <ellipse cx="300" cy="390" rx="70" ry="68" fill="#f8f0de"/>
  <circle cx="278" cy="390" r="12" fill="#0f172a"/>
  <path d="M300 410L330 424L300 438" stroke="#d97706" stroke-width="10" stroke-linecap="round"/>
  <rect x="240" y="518" width="120" height="18" rx="9" fill="#fbbf24"/>
  <rect x="580" y="500" width="130" height="26" rx="13" fill="#0f172a" opacity="0.45"/>
</svg>
